<svg width="542" height="420" viewBox="0 0 542 420" fill="none" xmlns="http://www.w3.org/2000/svg">
<path d="M330 190C318.96 190 310 198.96 310 210C310 221.04 318.96 230 330 230C341.04 230 350 221.04 350 210C350 198.96 341.04 190 330 190ZM330 196C333.32 196 336 198.68 336 202C336 205.32 333.32 208 330 208C326.68 208 324 205.32 324 202C324 198.68 326.68 196 330 196ZM330 224.4C325 224.4 320.58 221.84 318 217.96C318.06 213.98 326 211.8 330 211.8C333.98 211.8 341.94 213.98 342 217.96C339.42 221.84 335 224.4 330 224.4Z" fill="white"/>
<path d="M330 130C318.96 130 310 138.96 310 150C310 161.04 318.96 170 330 170C341.04 170 350 161.04 350 150C350 138.96 341.04 130 330 130ZM330 136C333.32 136 336 138.68 336 142C336 145.32 333.32 148 330 148C326.68 148 324 145.32 324 142C324 138.68 326.68 136 330 136ZM330 164.4C325 164.4 320.58 161.84 318 157.96C318.06 153.98 326 151.8 330 151.8C333.98 151.8 341.94 153.98 342 157.96C339.42 161.84 335 164.4 330 164.4Z" fill="#F5BD41"/>
<path d="M221.317 205.317V198.683H214.683L210 194L205.317 198.683H198.683V205.317L194 210L198.683 214.683V221.317H205.317L210 226L214.683 221.317H221.317V214.683L226 210L221.317 205.317ZM210 218.488C208.741 218.488 207.538 218.205 206.463 217.71C209.378 216.366 211.415 213.424 211.415 210C211.415 206.576 209.378 203.634 206.463 202.29C207.538 201.795 208.741 201.512 210 201.512C214.683 201.512 218.488 205.317 218.488 210C218.488 214.683 214.683 218.488 210 218.488Z" fill="white"/>
<path d="M457.5 343.333H431.208L435.167 324.292L435.292 322.958C435.292 321.25 434.583 319.667 433.458 318.542L429.042 314.167L401.625 341.625C400.083 343.125 399.167 345.208 399.167 347.5V389.167C399.167 393.75 402.917 397.5 407.5 397.5H445C448.458 397.5 451.417 395.417 452.667 392.417L465.25 363.042C465.625 362.083 465.833 361.083 465.833 360V351.667C465.833 347.083 462.083 343.333 457.5 343.333ZM457.5 360L445 389.167H407.5V347.5L425.583 329.417L420.958 351.667H457.5V360ZM374.167 347.5H390.833V397.5H374.167V347.5Z" fill="#3077C6"/>
<path d="M150.841 21.0236C150.634 20.6937 150.443 20.2437 150.266 19.6738C150.089 19.1039 150 18.5039 150 17.874C150 16.7042 150.251 15.8643 150.752 15.3543C151.284 14.8444 151.962 14.5894 152.788 14.5894H172.085C172.292 14.9194 172.483 15.3693 172.66 15.9393C172.837 16.5092 172.926 17.1091 172.926 17.739C172.926 18.9089 172.66 19.7488 172.129 20.2587C171.628 20.7687 170.964 21.0236 170.138 21.0236H165.225V41.811C164.9 41.901 164.384 41.991 163.676 42.081C162.997 42.171 162.319 42.216 161.64 42.216C160.961 42.216 160.357 42.156 159.825 42.036C159.324 41.946 158.896 41.766 158.542 41.4961C158.188 41.2261 157.922 40.8511 157.745 40.3712C157.568 39.8913 157.48 39.2613 157.48 38.4814V21.0236H150.841Z" fill="#3077C6"/>
<path d="M181.85 41.946C181.555 42.036 181.083 42.126 180.433 42.216C179.814 42.306 179.165 42.351 178.486 42.351C177.837 42.351 177.247 42.306 176.716 42.216C176.214 42.126 175.786 41.946 175.432 41.676C175.078 41.4061 174.798 41.0461 174.591 40.5962C174.414 40.1162 174.326 39.5013 174.326 38.7514V25.2531C174.326 24.5632 174.444 23.9783 174.68 23.4983C174.945 22.9884 175.314 22.5384 175.786 22.1485C176.258 21.7585 176.834 21.4136 177.512 21.1136C178.22 20.7837 178.973 20.4987 179.769 20.2587C180.566 20.0187 181.392 19.8388 182.248 19.7188C183.104 19.5688 183.959 19.4938 184.815 19.4938C186.231 19.4938 187.352 19.7788 188.179 20.3487C189.005 20.8886 189.418 21.7885 189.418 23.0484C189.418 23.4683 189.359 23.8883 189.241 24.3082C189.123 24.6982 188.975 25.0581 188.798 25.3881C188.179 25.3881 187.544 25.4181 186.895 25.4781C186.246 25.5381 185.612 25.628 184.992 25.748C184.372 25.868 183.782 26.003 183.222 26.153C182.691 26.273 182.233 26.4229 181.85 26.6029V41.946Z" fill="#3077C6"/>
<path d="M192.345 14.0495C192.345 12.9096 192.714 11.9498 193.451 11.1699C194.218 10.39 195.222 10 196.461 10C197.7 10 198.689 10.39 199.426 11.1699C200.193 11.9498 200.577 12.9096 200.577 14.0495C200.577 15.1894 200.193 16.1492 199.426 16.9291C198.689 17.709 197.7 18.099 196.461 18.099C195.222 18.099 194.218 17.709 193.451 16.9291C192.714 16.1492 192.345 15.1894 192.345 14.0495ZM200.223 41.946C199.898 42.006 199.411 42.081 198.762 42.171C198.143 42.291 197.508 42.351 196.859 42.351C196.21 42.351 195.62 42.306 195.089 42.216C194.587 42.126 194.159 41.946 193.805 41.676C193.451 41.4061 193.171 41.0461 192.964 40.5962C192.787 40.1162 192.699 39.5013 192.699 38.7514V20.4387C193.023 20.3787 193.496 20.3037 194.115 20.2137C194.764 20.0937 195.413 20.0337 196.063 20.0337C196.712 20.0337 197.287 20.0787 197.789 20.1687C198.32 20.2587 198.762 20.4387 199.116 20.7087C199.47 20.9786 199.736 21.3536 199.913 21.8335C200.12 22.2835 200.223 22.8834 200.223 23.6333V41.946Z" fill="#3077C6"/>
<path d="M214.883 19.4488C216.653 19.4488 218.29 19.6888 219.795 20.1687C221.33 20.6187 222.643 21.3236 223.734 22.2835C224.826 23.2433 225.682 24.4582 226.301 25.928C226.921 27.3678 227.231 29.0926 227.231 31.1024C227.231 33.0221 226.965 34.7019 226.434 36.1417C225.903 37.5816 225.151 38.7964 224.177 39.7863C223.203 40.7462 222.023 41.4661 220.636 41.946C219.279 42.4259 217.759 42.6659 216.078 42.6659C214.809 42.6659 213.629 42.4709 212.537 42.081V49.5501C212.242 49.64 211.77 49.73 211.121 49.82C210.471 49.94 209.808 50 209.129 50C208.48 50 207.89 49.955 207.359 49.865C206.857 49.775 206.429 49.5951 206.075 49.3251C205.721 49.0551 205.455 48.6802 205.278 48.2002C205.101 47.7503 205.013 47.1504 205.013 46.4004V24.8031C205.013 23.9932 205.175 23.3333 205.5 22.8234C205.854 22.3135 206.326 21.8485 206.916 21.4286C207.831 20.8286 208.967 20.3487 210.324 19.9888C211.681 19.6288 213.201 19.4488 214.883 19.4488ZM214.971 36.6367C218.01 36.6367 219.53 34.7919 219.53 31.1024C219.53 29.1826 219.146 27.7578 218.379 26.8279C217.641 25.898 216.564 25.4331 215.148 25.4331C214.587 25.4331 214.086 25.5081 213.643 25.658C213.201 25.778 212.817 25.928 212.493 26.108V36.0067C212.847 36.1867 213.23 36.3367 213.643 36.4567C214.056 36.5767 214.499 36.6367 214.971 36.6367Z" fill="#3077C6"/>
<path d="M255.466 41.811C255.141 41.901 254.625 41.991 253.917 42.081C253.238 42.171 252.56 42.216 251.881 42.216C251.202 42.216 250.598 42.156 250.066 42.036C249.565 41.946 249.137 41.766 248.783 41.4961C248.429 41.2261 248.163 40.8511 247.986 40.3712C247.809 39.8913 247.721 39.2613 247.721 38.4814V31.4623H239.223V41.811C238.899 41.901 238.382 41.991 237.674 42.081C236.995 42.171 236.317 42.216 235.638 42.216C234.959 42.216 234.355 42.156 233.824 42.036C233.322 41.946 232.894 41.766 232.54 41.4961C232.186 41.2261 231.92 40.8511 231.743 40.3712C231.566 39.8913 231.478 39.2613 231.478 38.4814V14.7244C231.802 14.6644 232.319 14.5894 233.027 14.4994C233.735 14.3795 234.414 14.3195 235.063 14.3195C235.741 14.3195 236.332 14.3795 236.833 14.4994C237.364 14.5894 237.807 14.7694 238.161 15.0394C238.515 15.3093 238.78 15.6843 238.958 16.1642C239.135 16.6442 239.223 17.2741 239.223 18.054V25.2531H247.721V14.7244C248.045 14.6644 248.562 14.5894 249.27 14.4994C249.978 14.3795 250.657 14.3195 251.306 14.3195C251.984 14.3195 252.574 14.3795 253.076 14.4994C253.607 14.5894 254.05 14.7694 254.404 15.0394C254.758 15.3093 255.023 15.6843 255.2 16.1642C255.377 16.6442 255.466 17.2741 255.466 18.054V41.811Z" fill="#3077C6"/>
<path d="M282.901 31.0574C282.901 32.9171 282.621 34.5819 282.06 36.0517C281.499 37.4916 280.703 38.7064 279.67 39.6963C278.667 40.6862 277.457 41.4361 276.041 41.946C274.624 42.4559 273.046 42.7109 271.305 42.7109C269.564 42.7109 267.986 42.4409 266.569 41.901C265.153 41.3611 263.929 40.5962 262.896 39.6063C261.893 38.5864 261.111 37.3566 260.55 35.9168C259.99 34.4769 259.709 32.8571 259.709 31.0574C259.709 29.2876 259.99 27.6828 260.55 26.243C261.111 24.8031 261.893 23.5883 262.896 22.5984C263.929 21.5786 265.153 20.7987 266.569 20.2587C267.986 19.7188 269.564 19.4488 271.305 19.4488C273.046 19.4488 274.624 19.7338 276.041 20.3037C277.457 20.8436 278.667 21.6235 279.67 22.6434C280.703 23.6333 281.499 24.8481 282.06 26.288C282.621 27.7278 282.901 29.3176 282.901 31.0574ZM267.41 31.0574C267.41 32.8871 267.75 34.297 268.428 35.2868C269.136 36.2467 270.11 36.7267 271.349 36.7267C272.589 36.7267 273.533 36.2317 274.182 35.2418C274.861 34.252 275.2 32.8571 275.2 31.0574C275.2 29.2576 274.861 27.8778 274.182 26.9179C273.503 25.928 272.544 25.4331 271.305 25.4331C270.066 25.4331 269.107 25.928 268.428 26.9179C267.75 27.8778 267.41 29.2576 267.41 31.0574Z" fill="#3077C6"/>
<path d="M286.572 20.4387C286.867 20.3487 287.324 20.2587 287.944 20.1687C288.593 20.0787 289.257 20.0337 289.935 20.0337C290.584 20.0337 291.16 20.0787 291.661 20.1687C292.192 20.2587 292.635 20.4387 292.989 20.7087C293.343 20.9786 293.609 21.3536 293.786 21.8335C293.992 22.2835 294.096 22.8834 294.096 23.6333V33.3071C294.096 34.5369 294.391 35.4218 294.981 35.9618C295.571 36.4717 296.426 36.7267 297.548 36.7267C298.226 36.7267 298.772 36.6667 299.185 36.5467C299.628 36.4267 299.967 36.3067 300.203 36.1867V20.4387C300.498 20.3487 300.956 20.2587 301.575 20.1687C302.224 20.0787 302.888 20.0337 303.567 20.0337C304.216 20.0337 304.791 20.0787 305.293 20.1687C305.824 20.2587 306.267 20.4387 306.621 20.7087C306.975 20.9786 307.24 21.3536 307.417 21.8335C307.624 22.2835 307.727 22.8834 307.727 23.6333V37.3116C307.727 38.8114 307.108 39.9363 305.868 40.6862C304.836 41.3461 303.596 41.841 302.151 42.171C300.734 42.5309 299.185 42.7109 297.503 42.7109C295.91 42.7109 294.435 42.5309 293.078 42.171C291.75 41.811 290.599 41.2561 289.625 40.5062C288.652 39.7563 287.899 38.7964 287.368 37.6265C286.837 36.4267 286.572 34.9869 286.572 33.3071V20.4387Z" fill="#3077C6"/>
<path d="M330.478 35.4668C330.478 37.7465 329.637 39.5313 327.955 40.8211C326.273 42.111 323.794 42.7559 320.519 42.7559C319.28 42.7559 318.129 42.6659 317.067 42.4859C316.005 42.306 315.09 42.036 314.323 41.676C313.586 41.2861 312.995 40.8061 312.553 40.2362C312.14 39.6663 311.933 38.9914 311.933 38.2115C311.933 37.4916 312.081 36.8916 312.376 36.4117C312.671 35.9018 313.025 35.4818 313.438 35.1519C314.294 35.6318 315.267 36.0667 316.359 36.4567C317.48 36.8166 318.764 36.9966 320.21 36.9966C321.124 36.9966 321.818 36.8616 322.29 36.5917C322.791 36.3217 323.042 35.9618 323.042 35.5118C323.042 35.0919 322.865 34.7619 322.511 34.5219C322.157 34.282 321.567 34.087 320.741 33.937L319.413 33.667C316.846 33.1571 314.928 32.3622 313.659 31.2823C312.42 30.1725 311.8 28.5977 311.8 26.5579C311.8 25.4481 312.036 24.4432 312.509 23.5433C312.981 22.6434 313.645 21.8935 314.5 21.2936C315.356 20.6937 316.374 20.2287 317.554 19.8988C318.764 19.5688 320.092 19.4038 321.537 19.4038C322.629 19.4038 323.647 19.4938 324.591 19.6738C325.565 19.8238 326.406 20.0637 327.114 20.3937C327.822 20.7237 328.383 21.1586 328.796 21.6985C329.209 22.2085 329.415 22.8234 329.415 23.5433C329.415 24.2332 329.283 24.8331 329.017 25.3431C328.781 25.823 328.471 26.228 328.088 26.5579C327.852 26.4079 327.497 26.258 327.025 26.108C326.553 25.928 326.037 25.778 325.476 25.658C324.916 25.5081 324.34 25.3881 323.75 25.2981C323.19 25.2081 322.673 25.1631 322.201 25.1631C321.227 25.1631 320.475 25.2831 319.944 25.5231C319.413 25.733 319.147 26.078 319.147 26.5579C319.147 26.8879 319.295 27.1579 319.59 27.3678C319.885 27.5778 320.446 27.7728 321.272 27.9528L322.644 28.2677C325.476 28.9276 327.483 29.8425 328.663 31.0124C329.873 32.1522 330.478 33.637 330.478 35.4668Z" fill="#3077C6"/>
<path d="M345.706 42.7109C343.965 42.7109 342.342 42.4709 340.837 41.991C339.362 41.4811 338.064 40.7312 336.942 39.7413C335.851 38.7514 334.98 37.5066 334.331 36.0067C333.712 34.5069 333.402 32.7522 333.402 30.7424C333.402 28.7627 333.712 27.0679 334.331 25.658C334.98 24.2182 335.821 23.0484 336.854 22.1485C337.887 21.2186 339.067 20.5437 340.395 20.1237C341.722 19.6738 343.08 19.4488 344.466 19.4488C346.03 19.4488 347.447 19.6888 348.715 20.1687C350.014 20.6487 351.12 21.3086 352.035 22.1485C352.979 22.9884 353.702 23.9932 354.203 25.1631C354.734 26.333 355 27.6078 355 28.9876C355 30.0075 354.72 30.7874 354.159 31.3273C353.598 31.8673 352.817 32.2122 351.813 32.3622L340.881 34.027C341.206 35.0169 341.87 35.7668 342.873 36.2767C343.876 36.7567 345.027 36.9966 346.325 36.9966C347.535 36.9966 348.671 36.8466 349.733 36.5467C350.825 36.2167 351.71 35.8418 352.389 35.4218C352.861 35.7218 353.259 36.1417 353.584 36.6817C353.908 37.2216 354.071 37.7915 354.071 38.3915C354.071 39.7413 353.451 40.7462 352.212 41.4061C351.268 41.916 350.205 42.261 349.025 42.4409C347.845 42.6209 346.738 42.7109 345.706 42.7109ZM344.466 25.0281C343.758 25.0281 343.139 25.1481 342.608 25.3881C342.106 25.628 341.693 25.943 341.368 26.333C341.044 26.6929 340.793 27.1129 340.616 27.5928C340.468 28.0427 340.38 28.5077 340.35 28.9876L347.919 27.7278C347.83 27.1279 347.506 26.5279 346.945 25.928C346.384 25.3281 345.558 25.0281 344.466 25.0281Z" fill="#3077C6"/>
<path d="M192.5 326.667V355.833H151.542L146.667 360.708V326.667H192.5ZM196.667 318.333H142.5C140.208 318.333 138.333 320.208 138.333 322.5V380.833L155 364.167H196.667C198.958 364.167 200.833 362.292 200.833 360V322.5C200.833 320.208 198.958 318.333 196.667 318.333ZM217.5 335H209.167V372.5H155V380.833C155 383.125 156.875 385 159.167 385H205L221.667 401.667V339.167C221.667 336.875 219.792 335 217.5 335Z" fill="#3077C6"/>
<circle cx="210" cy="90" r="20" fill="#F3F3F4"/>
<path fill-rule="evenodd" clip-rule="evenodd" d="M212.388 94.9442C211.322 95.7442 209.855 95.7442 208.788 94.9442L200.576 88.7854L201.776 87.1854L209.988 93.3442C210.344 93.6109 210.833 93.6109 211.188 93.3442L219.4 87.1854L220.6 88.7854L212.388 94.9442Z" fill="#383838"/>
<circle cx="480" cy="180" r="43" fill="white"/>
<path d="M483.652 192.748C483.652 190.692 484.163 188.718 485.125 186.959C483.764 186.191 482.762 185.69 482.342 185.486C482.209 185.424 482.138 185.291 482.138 185.148V177.067C483.151 176.392 483.826 175.236 483.826 173.927V165.549C483.826 161.386 480.45 158 476.277 158H475.376H474.476C470.313 158 466.927 161.376 466.927 165.549V173.927C466.927 175.236 467.602 176.392 468.615 177.067V185.148C468.615 185.291 468.533 185.424 468.41 185.486C467.255 186.048 461.659 188.872 456.473 193.137C455.532 193.904 455 195.06 455 196.277V202.016H475.366H487.979C487.703 201.791 487.447 201.545 487.191 201.29C484.91 199.009 483.652 195.971 483.652 192.748Z" fill="#3077C6"/>
<path d="M495.732 183.481C490.618 183.481 486.465 187.634 486.465 192.748C486.465 197.863 490.618 202.016 495.732 202.016C500.847 202.016 505 197.863 505 192.748C505 187.634 500.857 183.481 495.732 183.481ZM501.154 194.098H497.083V198.17H494.382V194.098H490.311V191.398H494.382V187.327H497.083V191.398H501.154V194.098Z" fill="#3077C6"/>
<path d="M163 79.4857L161.514 78L150 89.5143L138.486 78L137 79.4857L148.514 91L137 102.514L138.486 104L150 92.4857L161.514 104L163 102.514L151.486 91L163 79.4857Z" fill="#BFBFBF"/>
<path d="M89.6667 184C74.9467 184 63 195.947 63 210.667C63 225.387 74.9467 237.333 89.6667 237.333C104.387 237.333 116.333 225.387 116.333 210.667C116.333 195.947 104.387 184 89.6667 184ZM89.6667 192C94.0933 192 97.6667 195.573 97.6667 200C97.6667 204.427 94.0933 208 89.6667 208C85.24 208 81.6667 204.427 81.6667 200C81.6667 195.573 85.24 192 89.6667 192ZM89.6667 229.867C83 229.867 77.1067 226.453 73.6667 221.28C73.7467 215.973 84.3333 213.067 89.6667 213.067C94.9733 213.067 105.587 215.973 105.667 221.28C102.227 226.453 96.3333 229.867 89.6667 229.867Z" fill="#BFBFBF"/>
<path d="M89.1667 368.333V385H80.8333V368.333H89.1667ZM39.1667 368.333V385H35C32.7083 385 30.8333 383.125 30.8333 380.833V368.333H39.1667ZM60 314.167C39.2917 314.167 22.5 330.958 22.5 351.667V380.833C22.5 387.75 28.0833 393.333 35 393.333H47.5V360H30.8333V351.667C30.8333 335.542 43.875 322.5 60 322.5C76.125 322.5 89.1667 335.542 89.1667 351.667V360H72.5V393.333H89.1667V397.5H60V405.833H85C91.9167 405.833 97.5 400.25 97.5 393.333V351.667C97.5 330.958 80.7083 314.167 60 314.167Z" fill="#3077C6"/>
<path d="M33.4351 212.063H32.7124L32.4563 211.816C33.3528 210.773 33.8925 209.419 33.8925 207.946C33.8925 204.662 31.2304 202 27.9463 202C24.6621 202 22 204.662 22 207.946C22 211.23 24.6621 213.893 27.9463 213.893C29.4191 213.893 30.773 213.353 31.8159 212.456L32.0629 212.712V213.435L36.6369 218L38 216.637L33.4351 212.063ZM27.9463 212.063C25.6684 212.063 23.8296 210.224 23.8296 207.946C23.8296 205.668 25.6684 203.83 27.9463 203.83C30.2241 203.83 32.0629 205.668 32.0629 207.946C32.0629 210.224 30.2241 212.063 27.9463 212.063Z" fill="#BFBFBF"/>
<path d="M266.667 335H341.667V326.667H266.667C262.083 326.667 258.333 330.417 258.333 335V380.833H250V393.333H308.333V380.833H266.667V335ZM345.833 343.333H320.833C318.542 343.333 316.667 345.208 316.667 347.5V389.167C316.667 391.458 318.542 393.333 320.833 393.333H345.833C348.125 393.333 350 391.458 350 389.167V347.5C350 345.208 348.125 343.333 345.833 343.333ZM341.667 380.833H325V351.667H341.667V380.833Z" fill="#3077C6"/>
<circle cx="271" cy="90" r="20" fill="#F3F3F4"/>
<path d="M266.941 99.8235L273.1 91.6118C273.633 90.9007 273.633 89.9229 273.1 89.2118L266.941 81" stroke="#383838" stroke-width="2"/>
<path d="M18 158H42V155.333H18V158ZM18 151.333H42V148.667H18V151.333ZM18 142V144.667H42V142H18Z" fill="white"/>
<path d="M180.5 262.614C180.377 262.416 180.263 262.146 180.158 261.804C180.053 261.462 180 261.102 180 260.724C180 260.022 180.149 259.519 180.447 259.213C180.763 258.907 181.167 258.754 181.658 258.754H193.135C193.258 258.952 193.372 259.222 193.477 259.564C193.582 259.906 193.635 260.265 193.635 260.643C193.635 261.345 193.477 261.849 193.161 262.155C192.863 262.461 192.468 262.614 191.977 262.614H189.055V275.087C188.862 275.141 188.555 275.195 188.134 275.249C187.73 275.303 187.326 275.33 186.923 275.33C186.519 275.33 186.159 275.294 185.843 275.222C185.545 275.168 185.291 275.06 185.08 274.898C184.87 274.736 184.712 274.511 184.606 274.223C184.501 273.935 184.448 273.557 184.448 273.089V262.614H180.5Z" fill="#3077C6"/>
<path d="M198.942 275.168C198.767 275.222 198.486 275.276 198.1 275.33C197.731 275.384 197.345 275.411 196.942 275.411C196.555 275.411 196.205 275.384 195.889 275.33C195.59 275.276 195.336 275.168 195.125 275.006C194.915 274.844 194.748 274.628 194.625 274.358C194.52 274.07 194.467 273.701 194.467 273.251V265.152C194.467 264.738 194.537 264.387 194.678 264.099C194.836 263.793 195.055 263.523 195.336 263.289C195.617 263.055 195.959 262.848 196.362 262.668C196.784 262.47 197.231 262.299 197.705 262.155C198.179 262.011 198.67 261.903 199.179 261.831C199.688 261.741 200.197 261.696 200.706 261.696C201.548 261.696 202.215 261.867 202.706 262.209C203.197 262.533 203.443 263.073 203.443 263.829C203.443 264.081 203.408 264.333 203.338 264.585C203.268 264.819 203.18 265.035 203.075 265.233C202.706 265.233 202.329 265.251 201.943 265.287C201.557 265.323 201.179 265.377 200.811 265.449C200.442 265.521 200.091 265.602 199.758 265.692C199.442 265.764 199.17 265.854 198.942 265.962V275.168Z" fill="#3077C6"/>
<path d="M205.184 258.43C205.184 257.746 205.403 257.17 205.842 256.702C206.298 256.234 206.895 256 207.632 256C208.369 256 208.957 256.234 209.395 256.702C209.852 257.17 210.08 257.746 210.08 258.43C210.08 259.114 209.852 259.69 209.395 260.157C208.957 260.625 208.369 260.859 207.632 260.859C206.895 260.859 206.298 260.625 205.842 260.157C205.403 259.69 205.184 259.114 205.184 258.43ZM209.869 275.168C209.676 275.204 209.387 275.249 209.001 275.303C208.632 275.375 208.255 275.411 207.869 275.411C207.483 275.411 207.132 275.384 206.816 275.33C206.517 275.276 206.263 275.168 206.052 275.006C205.842 274.844 205.675 274.628 205.552 274.358C205.447 274.07 205.394 273.701 205.394 273.251V262.263C205.587 262.227 205.868 262.182 206.237 262.128C206.623 262.056 207.009 262.02 207.395 262.02C207.781 262.02 208.123 262.047 208.421 262.101C208.737 262.155 209.001 262.263 209.211 262.425C209.422 262.587 209.58 262.812 209.685 263.1C209.808 263.37 209.869 263.73 209.869 264.18V275.168Z" fill="#3077C6"/>
<path d="M218.588 261.669C219.641 261.669 220.614 261.813 221.509 262.101C222.422 262.371 223.203 262.794 223.852 263.37C224.501 263.946 225.01 264.675 225.379 265.557C225.747 266.421 225.932 267.456 225.932 268.661C225.932 269.813 225.774 270.821 225.458 271.685C225.142 272.549 224.694 273.278 224.115 273.872C223.536 274.448 222.834 274.88 222.01 275.168C221.202 275.456 220.299 275.6 219.298 275.6C218.544 275.6 217.842 275.483 217.193 275.249V279.73C217.017 279.784 216.736 279.838 216.35 279.892C215.964 279.964 215.569 280 215.166 280C214.78 280 214.429 279.973 214.113 279.919C213.815 279.865 213.56 279.757 213.35 279.595C213.139 279.433 212.981 279.208 212.876 278.92C212.771 278.65 212.718 278.29 212.718 277.84V264.882C212.718 264.396 212.814 264 213.007 263.694C213.218 263.388 213.499 263.109 213.85 262.857C214.394 262.497 215.069 262.209 215.877 261.993C216.684 261.777 217.587 261.669 218.588 261.669ZM218.64 271.982C220.448 271.982 221.352 270.875 221.352 268.661C221.352 267.51 221.123 266.655 220.667 266.097C220.228 265.539 219.588 265.26 218.746 265.26C218.412 265.26 218.114 265.305 217.851 265.395C217.587 265.467 217.359 265.557 217.166 265.665V271.604C217.377 271.712 217.605 271.802 217.851 271.874C218.096 271.946 218.36 271.982 218.64 271.982Z" fill="#3077C6"/>
<path d="M242.724 275.087C242.531 275.141 242.224 275.195 241.803 275.249C241.399 275.303 240.996 275.33 240.592 275.33C240.188 275.33 239.829 275.294 239.513 275.222C239.214 275.168 238.96 275.06 238.749 274.898C238.539 274.736 238.381 274.511 238.276 274.223C238.17 273.935 238.118 273.557 238.118 273.089V268.877H233.064V275.087C232.871 275.141 232.564 275.195 232.143 275.249C231.739 275.303 231.335 275.33 230.932 275.33C230.528 275.33 230.168 275.294 229.853 275.222C229.554 275.168 229.3 275.06 229.089 274.898C228.879 274.736 228.721 274.511 228.615 274.223C228.51 273.935 228.457 273.557 228.457 273.089V258.835C228.65 258.799 228.958 258.754 229.379 258.7C229.8 258.628 230.203 258.592 230.59 258.592C230.993 258.592 231.344 258.628 231.642 258.7C231.958 258.754 232.221 258.862 232.432 259.024C232.643 259.186 232.801 259.411 232.906 259.699C233.011 259.987 233.064 260.364 233.064 260.832V265.152H238.118V258.835C238.311 258.799 238.618 258.754 239.039 258.7C239.46 258.628 239.864 258.592 240.25 258.592C240.653 258.592 241.004 258.628 241.303 258.7C241.618 258.754 241.882 258.862 242.092 259.024C242.303 259.186 242.461 259.411 242.566 259.699C242.671 259.987 242.724 260.364 242.724 260.832V275.087Z" fill="#3077C6"/>
<path d="M259.04 268.634C259.04 269.75 258.874 270.749 258.54 271.631C258.207 272.495 257.733 273.224 257.119 273.818C256.522 274.412 255.803 274.862 254.96 275.168C254.118 275.474 253.179 275.627 252.144 275.627C251.109 275.627 250.17 275.465 249.328 275.141C248.485 274.817 247.757 274.358 247.143 273.764C246.546 273.152 246.081 272.414 245.748 271.55C245.414 270.686 245.248 269.714 245.248 268.634C245.248 267.573 245.414 266.61 245.748 265.746C246.081 264.882 246.546 264.153 247.143 263.559C247.757 262.947 248.485 262.479 249.328 262.155C250.17 261.831 251.109 261.669 252.144 261.669C253.179 261.669 254.118 261.84 254.96 262.182C255.803 262.506 256.522 262.974 257.119 263.586C257.733 264.18 258.207 264.909 258.54 265.773C258.874 266.637 259.04 267.591 259.04 268.634ZM249.828 268.634C249.828 269.732 250.029 270.578 250.433 271.172C250.854 271.748 251.433 272.036 252.17 272.036C252.907 272.036 253.469 271.739 253.855 271.145C254.259 270.551 254.46 269.714 254.46 268.634C254.46 267.555 254.259 266.727 253.855 266.151C253.451 265.557 252.881 265.26 252.144 265.26C251.407 265.26 250.837 265.557 250.433 266.151C250.029 266.727 249.828 267.555 249.828 268.634Z" fill="#3077C6"/>
<path d="M261.223 262.263C261.399 262.209 261.671 262.155 262.039 262.101C262.425 262.047 262.82 262.02 263.224 262.02C263.61 262.02 263.952 262.047 264.25 262.101C264.566 262.155 264.83 262.263 265.04 262.425C265.251 262.587 265.409 262.812 265.514 263.1C265.637 263.37 265.698 263.73 265.698 264.18V269.984C265.698 270.722 265.874 271.253 266.225 271.577C266.576 271.883 267.084 272.036 267.751 272.036C268.155 272.036 268.48 272 268.725 271.928C268.988 271.856 269.19 271.784 269.331 271.712V262.263C269.506 262.209 269.778 262.155 270.147 262.101C270.533 262.047 270.928 262.02 271.331 262.02C271.717 262.02 272.059 262.047 272.358 262.101C272.674 262.155 272.937 262.263 273.147 262.425C273.358 262.587 273.516 262.812 273.621 263.1C273.744 263.37 273.805 263.73 273.805 264.18V272.387C273.805 273.287 273.437 273.962 272.7 274.412C272.086 274.808 271.349 275.105 270.489 275.303C269.646 275.519 268.725 275.627 267.725 275.627C266.777 275.627 265.9 275.519 265.093 275.303C264.303 275.087 263.619 274.754 263.04 274.304C262.461 273.854 262.013 273.278 261.697 272.576C261.381 271.856 261.223 270.992 261.223 269.984V262.263Z" fill="#3077C6"/>
<path d="M287.336 271.28C287.336 272.648 286.836 273.719 285.835 274.493C284.835 275.267 283.361 275.654 281.413 275.654C280.676 275.654 279.992 275.6 279.36 275.492C278.728 275.384 278.184 275.222 277.728 275.006C277.289 274.772 276.939 274.484 276.675 274.142C276.43 273.8 276.307 273.395 276.307 272.927C276.307 272.495 276.395 272.135 276.57 271.847C276.745 271.541 276.956 271.289 277.202 271.091C277.711 271.379 278.29 271.64 278.939 271.874C279.606 272.09 280.369 272.198 281.229 272.198C281.773 272.198 282.185 272.117 282.466 271.955C282.764 271.793 282.914 271.577 282.914 271.307C282.914 271.055 282.808 270.857 282.598 270.713C282.387 270.569 282.036 270.452 281.545 270.362L280.755 270.2C279.229 269.894 278.088 269.417 277.333 268.769C276.596 268.103 276.228 267.159 276.228 265.935C276.228 265.269 276.368 264.666 276.649 264.126C276.93 263.586 277.325 263.136 277.833 262.776C278.342 262.416 278.948 262.137 279.65 261.939C280.369 261.741 281.159 261.642 282.019 261.642C282.668 261.642 283.273 261.696 283.835 261.804C284.414 261.894 284.914 262.038 285.335 262.236C285.756 262.434 286.09 262.695 286.335 263.019C286.581 263.325 286.704 263.694 286.704 264.126C286.704 264.54 286.625 264.9 286.467 265.206C286.327 265.494 286.142 265.737 285.914 265.935C285.774 265.845 285.563 265.755 285.283 265.665C285.002 265.557 284.695 265.467 284.361 265.395C284.028 265.305 283.686 265.233 283.335 265.179C283.001 265.125 282.694 265.098 282.414 265.098C281.834 265.098 281.387 265.17 281.071 265.314C280.755 265.44 280.597 265.647 280.597 265.935C280.597 266.133 280.685 266.295 280.861 266.421C281.036 266.547 281.369 266.664 281.861 266.772L282.677 266.961C284.361 267.357 285.555 267.906 286.257 268.607C286.976 269.291 287.336 270.182 287.336 271.28Z" fill="#3077C6"/>
<path d="M296.392 275.627C295.357 275.627 294.392 275.483 293.497 275.195C292.62 274.889 291.847 274.439 291.181 273.845C290.531 273.251 290.014 272.504 289.628 271.604C289.259 270.704 289.075 269.651 289.075 268.445C289.075 267.258 289.259 266.241 289.628 265.395C290.014 264.531 290.514 263.829 291.128 263.289C291.742 262.731 292.444 262.326 293.234 262.074C294.023 261.804 294.831 261.669 295.655 261.669C296.585 261.669 297.428 261.813 298.182 262.101C298.954 262.389 299.612 262.785 300.156 263.289C300.718 263.793 301.148 264.396 301.446 265.098C301.762 265.8 301.92 266.565 301.92 267.393C301.92 268.004 301.753 268.472 301.42 268.796C301.086 269.12 300.621 269.327 300.025 269.417L293.523 270.416C293.716 271.01 294.111 271.46 294.708 271.766C295.304 272.054 295.989 272.198 296.761 272.198C297.48 272.198 298.156 272.108 298.788 271.928C299.437 271.73 299.963 271.505 300.367 271.253C300.648 271.433 300.885 271.685 301.078 272.009C301.271 272.333 301.367 272.675 301.367 273.035C301.367 273.845 300.999 274.448 300.262 274.844C299.7 275.15 299.068 275.357 298.367 275.465C297.665 275.573 297.007 275.627 296.392 275.627ZM295.655 265.017C295.234 265.017 294.866 265.089 294.55 265.233C294.252 265.377 294.006 265.566 293.813 265.8C293.62 266.016 293.471 266.268 293.365 266.556C293.278 266.826 293.225 267.105 293.207 267.393L297.708 266.637C297.656 266.277 297.463 265.917 297.129 265.557C296.796 265.197 296.305 265.017 295.655 265.017Z" fill="#3077C6"/>
<path d="M360.402 266.236C360.303 266.079 360.212 265.866 360.127 265.595C360.042 265.324 360 265.039 360 264.74C360 264.184 360.12 263.786 360.36 263.543C360.614 263.301 360.938 263.18 361.333 263.18H370.558C370.656 263.337 370.748 263.55 370.833 263.821C370.917 264.092 370.96 264.377 370.96 264.676C370.96 265.232 370.833 265.631 370.579 265.873C370.339 266.115 370.022 266.236 369.627 266.236H367.278V276.11C367.123 276.153 366.876 276.196 366.538 276.238C366.213 276.281 365.889 276.303 365.565 276.303C365.24 276.303 364.951 276.274 364.697 276.217C364.457 276.174 364.253 276.089 364.083 275.961C363.914 275.832 363.787 275.654 363.703 275.426C363.618 275.198 363.576 274.899 363.576 274.529V266.236H360.402Z" fill="white"/>
<path d="M375.226 276.174C375.085 276.217 374.859 276.26 374.549 276.303C374.252 276.345 373.942 276.367 373.618 276.367C373.307 276.367 373.025 276.345 372.771 276.303C372.532 276.26 372.327 276.174 372.158 276.046C371.989 275.918 371.855 275.747 371.756 275.533C371.671 275.305 371.629 275.013 371.629 274.657V268.245C371.629 267.918 371.685 267.64 371.798 267.412C371.925 267.169 372.101 266.956 372.327 266.771C372.553 266.585 372.828 266.421 373.152 266.279C373.491 266.122 373.85 265.987 374.231 265.873C374.612 265.759 375.007 265.673 375.416 265.616C375.825 265.545 376.234 265.51 376.643 265.51C377.32 265.51 377.856 265.645 378.251 265.916C378.646 266.172 378.844 266.6 378.844 267.198C378.844 267.397 378.815 267.597 378.759 267.796C378.703 267.982 378.632 268.153 378.547 268.309C378.251 268.309 377.948 268.324 377.638 268.352C377.327 268.381 377.024 268.423 376.728 268.48C376.432 268.537 376.15 268.601 375.882 268.673C375.628 268.73 375.409 268.801 375.226 268.886V276.174Z" fill="white"/>
<path d="M380.243 262.924C380.243 262.382 380.419 261.926 380.772 261.556C381.139 261.185 381.618 261 382.211 261C382.803 261 383.276 261.185 383.628 261.556C383.995 261.926 384.178 262.382 384.178 262.924C384.178 263.465 383.995 263.921 383.628 264.291C383.276 264.662 382.803 264.847 382.211 264.847C381.618 264.847 381.139 264.662 380.772 264.291C380.419 263.921 380.243 263.465 380.243 262.924ZM384.009 276.174C383.854 276.203 383.621 276.238 383.311 276.281C383.015 276.338 382.711 276.367 382.401 276.367C382.091 276.367 381.809 276.345 381.555 276.303C381.315 276.26 381.11 276.174 380.941 276.046C380.772 275.918 380.638 275.747 380.539 275.533C380.454 275.305 380.412 275.013 380.412 274.657V265.958C380.567 265.93 380.793 265.894 381.089 265.852C381.4 265.795 381.71 265.766 382.02 265.766C382.33 265.766 382.606 265.787 382.845 265.83C383.099 265.873 383.311 265.958 383.48 266.087C383.649 266.215 383.776 266.393 383.861 266.621C383.96 266.835 384.009 267.12 384.009 267.476V276.174Z" fill="white"/>
<path d="M391.017 265.488C391.863 265.488 392.646 265.602 393.366 265.83C394.099 266.044 394.727 266.379 395.249 266.835C395.77 267.291 396.18 267.868 396.476 268.566C396.772 269.25 396.92 270.069 396.92 271.024C396.92 271.936 396.793 272.733 396.539 273.417C396.285 274.101 395.926 274.678 395.46 275.148C394.995 275.604 394.43 275.946 393.768 276.174C393.119 276.402 392.392 276.516 391.588 276.516C390.982 276.516 390.418 276.424 389.896 276.238V279.786C389.755 279.829 389.529 279.872 389.219 279.915C388.908 279.972 388.591 280 388.267 280C387.956 280 387.674 279.979 387.42 279.936C387.18 279.893 386.976 279.808 386.807 279.679C386.637 279.551 386.51 279.373 386.426 279.145C386.341 278.931 386.299 278.646 386.299 278.29V268.031C386.299 267.647 386.376 267.333 386.532 267.091C386.701 266.849 386.927 266.628 387.209 266.429C387.646 266.144 388.189 265.916 388.838 265.745C389.487 265.574 390.213 265.488 391.017 265.488ZM391.059 273.652C392.512 273.652 393.239 272.776 393.239 271.024C393.239 270.112 393.055 269.435 392.688 268.993C392.336 268.552 391.821 268.331 391.144 268.331C390.876 268.331 390.636 268.366 390.425 268.438C390.213 268.495 390.03 268.566 389.874 268.651V273.353C390.044 273.439 390.227 273.51 390.425 273.567C390.622 273.624 390.834 273.652 391.059 273.652Z" fill="white"/>
<path d="M410.418 276.11C410.263 276.153 410.016 276.196 409.677 276.238C409.353 276.281 409.029 276.303 408.704 276.303C408.38 276.303 408.091 276.274 407.837 276.217C407.597 276.174 407.392 276.089 407.223 275.961C407.054 275.832 406.927 275.654 406.842 275.426C406.758 275.198 406.715 274.899 406.715 274.529V271.195H402.653V276.11C402.498 276.153 402.251 276.196 401.912 276.238C401.588 276.281 401.264 276.303 400.939 276.303C400.615 276.303 400.326 276.274 400.072 276.217C399.832 276.174 399.627 276.089 399.458 275.961C399.289 275.832 399.162 275.654 399.077 275.426C398.993 275.198 398.95 274.899 398.95 274.529V263.244C399.106 263.216 399.352 263.18 399.691 263.137C400.029 263.08 400.354 263.052 400.664 263.052C400.989 263.052 401.271 263.08 401.51 263.137C401.764 263.18 401.976 263.265 402.145 263.394C402.314 263.522 402.441 263.7 402.526 263.928C402.611 264.156 402.653 264.455 402.653 264.826V268.245H406.715V263.244C406.87 263.216 407.117 263.18 407.456 263.137C407.794 263.08 408.119 263.052 408.429 263.052C408.753 263.052 409.036 263.08 409.275 263.137C409.529 263.18 409.741 263.265 409.91 263.394C410.079 263.522 410.206 263.7 410.291 263.928C410.376 264.156 410.418 264.455 410.418 264.826V276.11Z" fill="white"/>
<path d="M423.533 271.002C423.533 271.886 423.399 272.676 423.131 273.375C422.863 274.058 422.482 274.636 421.989 275.106C421.509 275.576 420.931 275.932 420.254 276.174C419.577 276.417 418.822 276.538 417.99 276.538C417.158 276.538 416.403 276.409 415.726 276.153C415.049 275.897 414.463 275.533 413.97 275.063C413.49 274.579 413.116 273.994 412.848 273.31C412.58 272.627 412.446 271.857 412.446 271.002C412.446 270.162 412.58 269.399 412.848 268.715C413.116 268.031 413.49 267.454 413.97 266.984C414.463 266.5 415.049 266.129 415.726 265.873C416.403 265.616 417.158 265.488 417.99 265.488C418.822 265.488 419.577 265.624 420.254 265.894C420.931 266.151 421.509 266.521 421.989 267.006C422.482 267.476 422.863 268.053 423.131 268.737C423.399 269.421 423.533 270.176 423.533 271.002ZM416.128 271.002C416.128 271.871 416.29 272.541 416.614 273.011C416.953 273.467 417.418 273.695 418.011 273.695C418.603 273.695 419.055 273.46 419.365 272.99C419.689 272.52 419.852 271.857 419.852 271.002C419.852 270.147 419.689 269.492 419.365 269.036C419.041 268.566 418.582 268.331 417.99 268.331C417.397 268.331 416.939 268.566 416.614 269.036C416.29 269.492 416.128 270.147 416.128 271.002Z" fill="white"/>
<path d="M425.288 265.958C425.429 265.916 425.648 265.873 425.944 265.83C426.254 265.787 426.571 265.766 426.896 265.766C427.206 265.766 427.481 265.787 427.721 265.83C427.975 265.873 428.186 265.958 428.356 266.087C428.525 266.215 428.652 266.393 428.737 266.621C428.835 266.835 428.885 267.12 428.885 267.476V272.071C428.885 272.655 429.026 273.075 429.308 273.332C429.59 273.574 429.999 273.695 430.535 273.695C430.859 273.695 431.12 273.667 431.318 273.61C431.529 273.553 431.692 273.496 431.804 273.439V265.958C431.946 265.916 432.164 265.873 432.46 265.83C432.771 265.787 433.088 265.766 433.412 265.766C433.723 265.766 433.998 265.787 434.238 265.83C434.492 265.873 434.703 265.958 434.872 266.087C435.042 266.215 435.169 266.393 435.253 266.621C435.352 266.835 435.401 267.12 435.401 267.476V273.973C435.401 274.685 435.105 275.22 434.513 275.576C434.019 275.889 433.427 276.124 432.735 276.281C432.058 276.452 431.318 276.538 430.514 276.538C429.752 276.538 429.047 276.452 428.398 276.281C427.763 276.11 427.213 275.847 426.748 275.49C426.282 275.134 425.923 274.678 425.669 274.123C425.415 273.553 425.288 272.869 425.288 272.071V265.958Z" fill="white"/>
<path d="M446.277 273.097C446.277 274.18 445.875 275.027 445.071 275.64C444.267 276.253 443.082 276.559 441.517 276.559C440.924 276.559 440.374 276.516 439.866 276.431C439.358 276.345 438.921 276.217 438.554 276.046C438.202 275.861 437.92 275.633 437.708 275.362C437.511 275.091 437.412 274.771 437.412 274.4C437.412 274.058 437.482 273.774 437.624 273.546C437.765 273.303 437.934 273.104 438.131 272.947C438.54 273.175 439.006 273.382 439.528 273.567C440.064 273.738 440.677 273.823 441.368 273.823C441.806 273.823 442.137 273.759 442.363 273.631C442.603 273.503 442.723 273.332 442.723 273.118C442.723 272.919 442.638 272.762 442.469 272.648C442.299 272.534 442.017 272.441 441.622 272.37L440.988 272.242C439.76 272 438.844 271.622 438.237 271.109C437.645 270.582 437.348 269.834 437.348 268.865C437.348 268.338 437.461 267.861 437.687 267.433C437.913 267.006 438.23 266.649 438.639 266.364C439.048 266.079 439.535 265.859 440.099 265.702C440.677 265.545 441.312 265.467 442.003 265.467C442.525 265.467 443.012 265.51 443.463 265.595C443.929 265.666 444.331 265.78 444.669 265.937C445.008 266.094 445.276 266.3 445.473 266.557C445.671 266.799 445.769 267.091 445.769 267.433C445.769 267.761 445.706 268.046 445.579 268.288C445.466 268.516 445.318 268.708 445.135 268.865C445.022 268.794 444.852 268.723 444.627 268.651C444.401 268.566 444.154 268.495 443.886 268.438C443.618 268.366 443.343 268.309 443.061 268.267C442.793 268.224 442.546 268.202 442.321 268.202C441.855 268.202 441.495 268.259 441.242 268.373C440.988 268.473 440.861 268.637 440.861 268.865C440.861 269.022 440.931 269.15 441.072 269.25C441.213 269.349 441.481 269.442 441.876 269.528L442.532 269.677C443.886 269.991 444.845 270.425 445.41 270.981C445.988 271.522 446.277 272.228 446.277 273.097Z" fill="white"/>
<path d="M453.557 276.538C452.725 276.538 451.949 276.424 451.229 276.196C450.524 275.954 449.904 275.597 449.368 275.127C448.846 274.657 448.43 274.066 448.119 273.353C447.823 272.641 447.675 271.807 447.675 270.853C447.675 269.912 447.823 269.107 448.119 268.438C448.43 267.754 448.832 267.198 449.325 266.771C449.819 266.329 450.383 266.008 451.018 265.809C451.653 265.595 452.301 265.488 452.964 265.488C453.712 265.488 454.389 265.602 454.996 265.83C455.616 266.058 456.145 266.372 456.582 266.771C457.034 267.169 457.379 267.647 457.619 268.202C457.873 268.758 458 269.364 458 270.019C458 270.504 457.866 270.874 457.598 271.13C457.33 271.387 456.956 271.551 456.477 271.622L451.251 272.413C451.406 272.883 451.723 273.239 452.203 273.481C452.682 273.709 453.232 273.823 453.853 273.823C454.431 273.823 454.974 273.752 455.482 273.61C456.004 273.453 456.427 273.275 456.752 273.075C456.977 273.218 457.168 273.417 457.323 273.674C457.478 273.93 457.556 274.201 457.556 274.486C457.556 275.127 457.259 275.604 456.667 275.918C456.216 276.16 455.708 276.324 455.144 276.409C454.579 276.495 454.051 276.538 453.557 276.538ZM452.964 268.138C452.626 268.138 452.33 268.195 452.076 268.309C451.836 268.423 451.639 268.573 451.483 268.758C451.328 268.929 451.208 269.129 451.124 269.357C451.053 269.57 451.011 269.791 450.997 270.019L454.615 269.421C454.572 269.136 454.417 268.851 454.149 268.566C453.881 268.281 453.486 268.138 452.964 268.138Z" fill="white"/>
<circle cx="324" cy="90" r="14" fill="#F3F3F4"/>
<path d="M322.059 96.1765L326.1 90.7882C326.633 90.0771 326.633 89.0993 326.1 88.3882L322.059 83" stroke="#383838" stroke-width="2"/>
</svg>
